{"asset":{"version":"2.0","generator":"THREE.GLTFExporter r167; Ashenhold Frostbound shared-texture conversion"},"scenes":[{"name":"AuxScene","nodes":[2]}],"scene":0,"nodes":[{"name":"Branches_LOD0","mesh":0},{"name":"Leaves_LOD0","mesh":1},{"name":"Tree_LOD0","children":[0,1]}],"bufferViews":[{"buffer":0,"byteOffset":0,"byteLength":93804,"target":34962,"byteStride":12},{"buffer":0,"byteOffset":93804,"byteLength":93804,"target":34962,"byteStride":12},{"buffer":0,"byteOffset":187608,"byteLength":62536,"target":34962,"byteStride":8},{"buffer":0,"byteOffset":250144,"byteLength":73152,"target":34963},{"buffer":0,"byteOffset":323296,"byteLength":307200,"target":34962,"byteStride":12},{"buffer":0,"byteOffset":630496,"byteLength":307200,"target":34962,"byteStride":12},{"buffer":0,"byteOffset":937696,"byteLength":204800,"target":34962,"byteStride":8},{"buffer":0,"byteOffset":1142496,"byteLength":76800,"target":34963}],"buffers":[{"byteLength":1219296,"uri":"tree_LOD0.bin"}],"accessors":[{"bufferView":0,"componentType":5126,"count":7817,"max":[8.788628578186035,50.057682037353516,9.090503692626953],"min":[-8.640938758850098,0,-9.505910873413086],"type":"VEC3"},{"bufferView":1,"componentType":5126,"count":7817,"max":[1,0.9998299479484558,1],"min":[-1,-0.9998299479484558,-1],"type":"VEC3"},{"bufferView":2,"componentType":5126,"count":7817,"max":[1,1],"min":[0,0],"type":"VEC2"},{"bufferView":3,"componentType":5123,"count":36576,"max":[7816],"min":[0],"type":"SCALAR"},{"bufferView":4,"componentType":5126,"count":25600,"max":[19.55432891845703,60.89871597290039,19.67023468017578],"min":[-20.06002426147461,0.09333330392837524,-19.553783416748047],"type":"VEC3"},{"bufferView":5,"componentType":5126,"count":25600,"max":[0.9998935461044312,0.9999554753303528,0.9999775290489197],"min":[-0.9999276995658875,-0.9999722242355347,-0.999956488609314],"type":"VEC3"},{"bufferView":6,"componentType":5126,"count":25600,"max":[1,1],"min":[0,0],"type":"VEC2"},{"bufferView":7,"componentType":5123,"count":38400,"max":[25599],"min":[0],"type":"SCALAR"}],"materials":[{"pbrMetallicRoughness":{"metallicFactor":0,"roughnessFactor":1,"baseColorTexture":{"index":0,"texCoord":0}},"name":"branches"},{"pbrMetallicRoughness":{"baseColorFactor":[0,0.7529422167708612,1,1],"metallicFactor":0,"roughnessFactor":1,"baseColorTexture":{"index":1,"texCoord":0}},"alphaMode":"MASK","alphaCutoff":0.3,"doubleSided":true,"name":"leaves"}],"textures":[{"sampler":1,"source":0},{"sampler":3,"source":1}],"samplers":[{"magFilter":9729,"minFilter":9987,"wrapS":10497,"wrapT":10497},{"magFilter":9729,"minFilter":9987,"wrapS":10497,"wrapT":10497},{"magFilter":9729,"minFilter":9987,"wrapS":10497,"wrapT":10497},{"magFilter":9729,"minFilter":9987,"wrapS":33071,"wrapT":33071}],"images":[{"name":"christmas-branches-color","uri":"textures/branches-color.webp","mimeType":"image/webp"},{"name":"christmas-leaves-color","uri":"textures/leaves-color.webp","mimeType":"image/webp"}],"meshes":[{"primitives":[{"mode":4,"attributes":{"POSITION":0,"NORMAL":1,"TEXCOORD_0":2},"indices":3,"material":0}]},{"primitives":[{"mode":4,"attributes":{"POSITION":4,"NORMAL":5,"TEXCOORD_0":6},"indices":7,"material":1}]}]}