{"asset":{"version":"2.0","generator":"THREE.GLTFExporter r167; Ashenhold Frostbound shared-texture conversion"},"scenes":[{"name":"AuxScene","nodes":[2]}],"scene":0,"nodes":[{"name":"Branches_LOD2","mesh":0},{"name":"Leaves_LOD2","mesh":1},{"name":"Tree_LOD2","children":[0,1]}],"bufferViews":[{"buffer":0,"byteOffset":0,"byteLength":14544,"target":34962,"byteStride":12},{"buffer":0,"byteOffset":14544,"byteLength":14544,"target":34962,"byteStride":12},{"buffer":0,"byteOffset":29088,"byteLength":9696,"target":34962,"byteStride":8},{"buffer":0,"byteOffset":38784,"byteLength":7272,"target":34963},{"buffer":0,"byteOffset":46056,"byteLength":153600,"target":34962,"byteStride":12},{"buffer":0,"byteOffset":199656,"byteLength":153600,"target":34962,"byteStride":12},{"buffer":0,"byteOffset":353256,"byteLength":102400,"target":34962,"byteStride":8},{"buffer":0,"byteOffset":455656,"byteLength":38400,"target":34963}],"buffers":[{"byteLength":494056,"uri":"tree_LOD2.bin"}],"accessors":[{"bufferView":0,"componentType":5126,"count":1212,"max":[8.788628578186035,50.057682037353516,9.090289115905762],"min":[-8.640938758850098,0,-9.505910873413086],"type":"VEC3"},{"bufferView":1,"componentType":5126,"count":1212,"max":[1,0.9989394545555115,0.9992155432701111],"min":[-0.9998776912689209,-0.9872884750366211,-0.9999827146530151],"type":"VEC3"},{"bufferView":2,"componentType":5126,"count":1212,"max":[1,1],"min":[0,0],"type":"VEC2"},{"bufferView":3,"componentType":5123,"count":3636,"max":[1211],"min":[0],"type":"SCALAR"},{"bufferView":4,"componentType":5126,"count":12800,"max":[22.93756675720215,64.17764282226562,22.53034019470215],"min":[-22.48208999633789,-3.0614237785339355,-22.744789123535156],"type":"VEC3"},{"bufferView":5,"componentType":5126,"count":12800,"max":[0.9999821782112122,0.9999444484710693,0.9999834299087524],"min":[-0.9999105334281921,-0.9998443722724915,-0.9998353123664856],"type":"VEC3"},{"bufferView":6,"componentType":5126,"count":12800,"max":[1,1],"min":[0,0],"type":"VEC2"},{"bufferView":7,"componentType":5123,"count":19200,"max":[12799],"min":[0],"type":"SCALAR"}],"materials":[{"pbrMetallicRoughness":{"metallicFactor":0,"roughnessFactor":1,"baseColorTexture":{"index":0,"texCoord":0}},"name":"branches"},{"pbrMetallicRoughness":{"baseColorFactor":[0,0.7529422167708612,1,1],"metallicFactor":0,"roughnessFactor":1,"baseColorTexture":{"index":1,"texCoord":0}},"alphaMode":"MASK","alphaCutoff":0.3,"doubleSided":true,"name":"leaves"}],"textures":[{"sampler":1,"source":0},{"sampler":3,"source":1}],"samplers":[{"magFilter":9729,"minFilter":9987,"wrapS":10497,"wrapT":10497},{"magFilter":9729,"minFilter":9987,"wrapS":10497,"wrapT":10497},{"magFilter":9729,"minFilter":9987,"wrapS":10497,"wrapT":10497},{"magFilter":9729,"minFilter":9987,"wrapS":33071,"wrapT":33071}],"images":[{"name":"christmas-branches-color","uri":"textures/branches-color.webp","mimeType":"image/webp"},{"name":"christmas-leaves-color","uri":"textures/leaves-color.webp","mimeType":"image/webp"}],"meshes":[{"primitives":[{"mode":4,"attributes":{"POSITION":0,"NORMAL":1,"TEXCOORD_0":2},"indices":3,"material":0}]},{"primitives":[{"mode":4,"attributes":{"POSITION":4,"NORMAL":5,"TEXCOORD_0":6},"indices":7,"material":1}]}]}