{"asset":{"version":"2.0","generator":"THREE.GLTFExporter r167; Ashenhold Frostbound shared-texture conversion"},"scenes":[{"name":"AuxScene","nodes":[2]}],"scene":0,"nodes":[{"name":"Branches_LOD1","mesh":0},{"name":"Leaves_LOD1","mesh":1},{"name":"Tree_LOD1","children":[0,1]}],"bufferViews":[{"buffer":0,"byteOffset":0,"byteLength":36420,"target":34962,"byteStride":12},{"buffer":0,"byteOffset":36420,"byteLength":36420,"target":34962,"byteStride":12},{"buffer":0,"byteOffset":72840,"byteLength":24280,"target":34962,"byteStride":8},{"buffer":0,"byteOffset":97120,"byteLength":24288,"target":34963},{"buffer":0,"byteOffset":121408,"byteLength":153600,"target":34962,"byteStride":12},{"buffer":0,"byteOffset":275008,"byteLength":153600,"target":34962,"byteStride":12},{"buffer":0,"byteOffset":428608,"byteLength":102400,"target":34962,"byteStride":8},{"buffer":0,"byteOffset":531008,"byteLength":38400,"target":34963}],"buffers":[{"byteLength":569408,"uri":"tree_LOD1.bin"}],"accessors":[{"bufferView":0,"componentType":5126,"count":3035,"max":[8.788641929626465,50.057682037353516,9.090423583984375],"min":[-8.640912055969238,0,-9.505910873413086],"type":"VEC3"},{"bufferView":1,"componentType":5126,"count":3035,"max":[1,0.9969689249992371,0.9997754693031311],"min":[-1,-0.99797123670578,-0.999998152256012],"type":"VEC3"},{"bufferView":2,"componentType":5126,"count":3035,"max":[1,1],"min":[0,0],"type":"VEC2"},{"bufferView":3,"componentType":5123,"count":12144,"max":[3034],"min":[0],"type":"SCALAR"},{"bufferView":4,"componentType":5126,"count":12800,"max":[22.347702026367188,63.63115310668945,21.97343635559082],"min":[-21.895252227783203,-2.535630941390991,-22.177322387695312],"type":"VEC3"},{"bufferView":5,"componentType":5126,"count":12800,"max":[0.9999818801879883,0.999973475933075,0.9999895691871643],"min":[-0.9997431635856628,-0.9996765851974487,-0.9997841119766235],"type":"VEC3"},{"bufferView":6,"componentType":5126,"count":12800,"max":[1,1],"min":[0,0],"type":"VEC2"},{"bufferView":7,"componentType":5123,"count":19200,"max":[12799],"min":[0],"type":"SCALAR"}],"materials":[{"pbrMetallicRoughness":{"metallicFactor":0,"roughnessFactor":1,"baseColorTexture":{"index":0,"texCoord":0}},"name":"branches"},{"pbrMetallicRoughness":{"baseColorFactor":[0,0.7529422167708612,1,1],"metallicFactor":0,"roughnessFactor":1,"baseColorTexture":{"index":1,"texCoord":0}},"alphaMode":"MASK","alphaCutoff":0.3,"doubleSided":true,"name":"leaves"}],"textures":[{"sampler":1,"source":0},{"sampler":3,"source":1}],"samplers":[{"magFilter":9729,"minFilter":9987,"wrapS":10497,"wrapT":10497},{"magFilter":9729,"minFilter":9987,"wrapS":10497,"wrapT":10497},{"magFilter":9729,"minFilter":9987,"wrapS":10497,"wrapT":10497},{"magFilter":9729,"minFilter":9987,"wrapS":33071,"wrapT":33071}],"images":[{"name":"christmas-branches-color","uri":"textures/branches-color.webp","mimeType":"image/webp"},{"name":"christmas-leaves-color","uri":"textures/leaves-color.webp","mimeType":"image/webp"}],"meshes":[{"primitives":[{"mode":4,"attributes":{"POSITION":0,"NORMAL":1,"TEXCOORD_0":2},"indices":3,"material":0}]},{"primitives":[{"mode":4,"attributes":{"POSITION":4,"NORMAL":5,"TEXCOORD_0":6},"indices":7,"material":1}]}]}