{"asset":{"version":"2.0","generator":"THREE.GLTFExporter r167; Ashenhold Frostbound shared-texture conversion"},"scenes":[{"name":"AuxScene","nodes":[2]}],"scene":0,"nodes":[{"name":"Branches_LOD0","mesh":0},{"name":"Leaves_LOD0","mesh":1},{"name":"Tree_LOD0","children":[0,1]}],"bufferViews":[{"buffer":0,"byteOffset":0,"byteLength":35148,"target":34962,"byteStride":12},{"buffer":0,"byteOffset":35148,"byteLength":35148,"target":34962,"byteStride":12},{"buffer":0,"byteOffset":70296,"byteLength":23432,"target":34962,"byteStride":8},{"buffer":0,"byteOffset":93728,"byteLength":25920,"target":34963},{"buffer":0,"byteOffset":119648,"byteLength":135168,"target":34962,"byteStride":12},{"buffer":0,"byteOffset":254816,"byteLength":135168,"target":34962,"byteStride":12},{"buffer":0,"byteOffset":389984,"byteLength":90112,"target":34962,"byteStride":8},{"buffer":0,"byteOffset":480096,"byteLength":33792,"target":34963}],"buffers":[{"byteLength":513888,"uri":"tree_LOD0.bin"}],"accessors":[{"bufferView":0,"componentType":5126,"count":2929,"max":[22.911540985107422,80.33610534667969,24.772640228271484],"min":[-24.553241729736328,0,-20.493600845336914],"type":"VEC3"},{"bufferView":1,"componentType":5126,"count":2929,"max":[1,0.9954653978347778,1],"min":[-1,-0.9954653978347778,-1],"type":"VEC3"},{"bufferView":2,"componentType":5126,"count":2929,"max":[5,1],"min":[0,0],"type":"VEC2"},{"bufferView":3,"componentType":5123,"count":12960,"max":[2928],"min":[0],"type":"SCALAR"},{"bufferView":4,"componentType":5126,"count":11264,"max":[40.705413818359375,94.1832275390625,38.45016098022461],"min":[-40.84769058227539,26.48529052734375,-33.74634552001953],"type":"VEC3"},{"bufferView":5,"componentType":5126,"count":11264,"max":[0.9995627999305725,0.9999101758003235,0.9999966025352478],"min":[-0.9997797012329102,-0.9997666478157043,-0.9994485974311829],"type":"VEC3"},{"bufferView":6,"componentType":5126,"count":11264,"max":[1,1],"min":[0,0],"type":"VEC2"},{"bufferView":7,"componentType":5123,"count":16896,"max":[11263],"min":[0],"type":"SCALAR"}],"materials":[{"pbrMetallicRoughness":{"metallicFactor":0,"roughnessFactor":1,"baseColorTexture":{"index":0,"texCoord":0}},"name":"branches"},{"pbrMetallicRoughness":{"baseColorFactor":[1,0.9559733532482866,0.12213877222015301,1],"metallicFactor":0,"roughnessFactor":1,"baseColorTexture":{"index":1,"texCoord":0}},"alphaMode":"MASK","alphaCutoff":0.5,"doubleSided":true,"name":"leaves"}],"textures":[{"sampler":1,"source":0},{"sampler":3,"source":1}],"samplers":[{"magFilter":9729,"minFilter":9987,"wrapS":10497,"wrapT":10497},{"magFilter":9729,"minFilter":9987,"wrapS":10497,"wrapT":10497},{"magFilter":9729,"minFilter":9987,"wrapS":10497,"wrapT":10497},{"magFilter":9729,"minFilter":9987,"wrapS":33071,"wrapT":33071}],"images":[{"name":"yellow-branches-color","uri":"textures/branches-color.webp","mimeType":"image/webp"},{"name":"yellow-leaves-color","uri":"textures/leaves-color.webp","mimeType":"image/webp"}],"meshes":[{"primitives":[{"mode":4,"attributes":{"POSITION":0,"NORMAL":1,"TEXCOORD_0":2},"indices":3,"material":0}]},{"primitives":[{"mode":4,"attributes":{"POSITION":4,"NORMAL":5,"TEXCOORD_0":6},"indices":7,"material":1}]}]}