{"asset":{"version":"2.0","generator":"THREE.GLTFExporter r167; Ashenhold Frostbound shared-texture conversion"},"scenes":[{"name":"AuxScene","nodes":[2]}],"scene":0,"nodes":[{"name":"Branches_LOD1","mesh":0},{"name":"Leaves_LOD1","mesh":1},{"name":"Tree_LOD1","children":[0,1]}],"bufferViews":[{"buffer":0,"byteOffset":0,"byteLength":13356,"target":34962,"byteStride":12},{"buffer":0,"byteOffset":13356,"byteLength":13356,"target":34962,"byteStride":12},{"buffer":0,"byteOffset":26712,"byteLength":8904,"target":34962,"byteStride":8},{"buffer":0,"byteOffset":35616,"byteLength":8028,"target":34963},{"buffer":0,"byteOffset":43644,"byteLength":67584,"target":34962,"byteStride":12},{"buffer":0,"byteOffset":111228,"byteLength":67584,"target":34962,"byteStride":12},{"buffer":0,"byteOffset":178812,"byteLength":45056,"target":34962,"byteStride":8},{"buffer":0,"byteOffset":223868,"byteLength":16896,"target":34963}],"buffers":[{"byteLength":240764,"uri":"tree_LOD1.bin"}],"accessors":[{"bufferView":0,"componentType":5126,"count":1113,"max":[22.91150665283203,80.33611297607422,24.772478103637695],"min":[-24.553241729736328,0,-20.493301391601562],"type":"VEC3"},{"bufferView":1,"componentType":5126,"count":1113,"max":[1,0.9982006549835205,0.9992346167564392],"min":[-1,-0.99678635597229,-0.9940317273139954],"type":"VEC3"},{"bufferView":2,"componentType":5126,"count":1113,"max":[5,1],"min":[0,0],"type":"VEC2"},{"bufferView":3,"componentType":5123,"count":4014,"max":[1112],"min":[0],"type":"SCALAR"},{"bufferView":4,"componentType":5126,"count":5632,"max":[45.15394973754883,98.16352081298828,41.869693756103516],"min":[-41.52328109741211,24.50486183166504,-33.59313201904297],"type":"VEC3"},{"bufferView":5,"componentType":5126,"count":5632,"max":[0.9993599653244019,0.9997536540031433,0.9995604753494263],"min":[-0.9993855953216553,-0.9999061822891235,-0.999275803565979],"type":"VEC3"},{"bufferView":6,"componentType":5126,"count":5632,"max":[1,1],"min":[0,0],"type":"VEC2"},{"bufferView":7,"componentType":5123,"count":8448,"max":[5631],"min":[0],"type":"SCALAR"}],"materials":[{"pbrMetallicRoughness":{"metallicFactor":0,"roughnessFactor":1,"baseColorTexture":{"index":0,"texCoord":0}},"name":"branches"},{"pbrMetallicRoughness":{"baseColorFactor":[1,0.9559733532482866,0.12213877222015301,1],"metallicFactor":0,"roughnessFactor":1,"baseColorTexture":{"index":1,"texCoord":0}},"alphaMode":"MASK","alphaCutoff":0.5,"doubleSided":true,"name":"leaves"}],"textures":[{"sampler":1,"source":0},{"sampler":3,"source":1}],"samplers":[{"magFilter":9729,"minFilter":9987,"wrapS":10497,"wrapT":10497},{"magFilter":9729,"minFilter":9987,"wrapS":10497,"wrapT":10497},{"magFilter":9729,"minFilter":9987,"wrapS":10497,"wrapT":10497},{"magFilter":9729,"minFilter":9987,"wrapS":33071,"wrapT":33071}],"images":[{"name":"yellow-branches-color","uri":"textures/branches-color.webp","mimeType":"image/webp"},{"name":"yellow-leaves-color","uri":"textures/leaves-color.webp","mimeType":"image/webp"}],"meshes":[{"primitives":[{"mode":4,"attributes":{"POSITION":0,"NORMAL":1,"TEXCOORD_0":2},"indices":3,"material":0}]},{"primitives":[{"mode":4,"attributes":{"POSITION":4,"NORMAL":5,"TEXCOORD_0":6},"indices":7,"material":1}]}]}