{"asset":{"version":"2.0","generator":"THREE.GLTFExporter r167; Ashenhold Frostbound shared-texture conversion"},"scenes":[{"name":"AuxScene","nodes":[2]}],"scene":0,"nodes":[{"name":"Branches_LOD2","mesh":0},{"name":"Leaves_LOD2","mesh":1},{"name":"Tree_LOD2","children":[0,1]}],"bufferViews":[{"buffer":0,"byteOffset":0,"byteLength":8064,"target":34962,"byteStride":12},{"buffer":0,"byteOffset":8064,"byteLength":8064,"target":34962,"byteStride":12},{"buffer":0,"byteOffset":16128,"byteLength":5376,"target":34962,"byteStride":8},{"buffer":0,"byteOffset":21504,"byteLength":4032,"target":34963},{"buffer":0,"byteOffset":25536,"byteLength":33792,"target":34962,"byteStride":12},{"buffer":0,"byteOffset":59328,"byteLength":33792,"target":34962,"byteStride":12},{"buffer":0,"byteOffset":93120,"byteLength":22528,"target":34962,"byteStride":8},{"buffer":0,"byteOffset":115648,"byteLength":8448,"target":34963}],"buffers":[{"byteLength":124096,"uri":"tree_LOD2.bin"}],"accessors":[{"bufferView":0,"componentType":5126,"count":672,"max":[22.91150665283203,80.33592987060547,24.772478103637695],"min":[-24.553241729736328,0,-20.493301391601562],"type":"VEC3"},{"bufferView":1,"componentType":5126,"count":672,"max":[1,0.9982006549835205,0.9984374642372131],"min":[-0.9955097436904907,-0.9956329464912415,-0.9940317273139954],"type":"VEC3"},{"bufferView":2,"componentType":5126,"count":672,"max":[5,1],"min":[0,0],"type":"VEC2"},{"bufferView":3,"componentType":5123,"count":2016,"max":[671],"min":[0],"type":"SCALAR"},{"bufferView":4,"componentType":5126,"count":2816,"max":[44.43791198730469,96.009765625,41.04942321777344],"min":[-41.959625244140625,27.783626556396484,-34.4433479309082],"type":"VEC3"},{"bufferView":5,"componentType":5126,"count":2816,"max":[0.9978505969047546,0.9992949962615967,0.999401330947876],"min":[-0.9994551539421082,-0.9998350739479065,-0.9994006752967834],"type":"VEC3"},{"bufferView":6,"componentType":5126,"count":2816,"max":[1,1],"min":[0,0],"type":"VEC2"},{"bufferView":7,"componentType":5123,"count":4224,"max":[2815],"min":[0],"type":"SCALAR"}],"materials":[{"pbrMetallicRoughness":{"metallicFactor":0,"roughnessFactor":1,"baseColorTexture":{"index":0,"texCoord":0}},"name":"branches"},{"pbrMetallicRoughness":{"baseColorFactor":[1,0.9559733532482866,0.12213877222015301,1],"metallicFactor":0,"roughnessFactor":1,"baseColorTexture":{"index":1,"texCoord":0}},"alphaMode":"MASK","alphaCutoff":0.5,"doubleSided":true,"name":"leaves"}],"textures":[{"sampler":1,"source":0},{"sampler":3,"source":1}],"samplers":[{"magFilter":9729,"minFilter":9987,"wrapS":10497,"wrapT":10497},{"magFilter":9729,"minFilter":9987,"wrapS":10497,"wrapT":10497},{"magFilter":9729,"minFilter":9987,"wrapS":10497,"wrapT":10497},{"magFilter":9729,"minFilter":9987,"wrapS":33071,"wrapT":33071}],"images":[{"name":"yellow-branches-color","uri":"textures/branches-color.webp","mimeType":"image/webp"},{"name":"yellow-leaves-color","uri":"textures/leaves-color.webp","mimeType":"image/webp"}],"meshes":[{"primitives":[{"mode":4,"attributes":{"POSITION":0,"NORMAL":1,"TEXCOORD_0":2},"indices":3,"material":0}]},{"primitives":[{"mode":4,"attributes":{"POSITION":4,"NORMAL":5,"TEXCOORD_0":6},"indices":7,"material":1}]}]}