{"asset":{"version":"2.0","generator":"THREE.GLTFExporter r167; Ashenhold shared-texture conversion"},"scenes":[{"name":"AuxScene","nodes":[2]}],"scene":0,"nodes":[{"name":"Branches_LOD1","mesh":0},{"name":"Leaves_LOD1","mesh":1},{"name":"Tree_LOD1","children":[0,1]}],"bufferViews":[{"buffer":0,"byteOffset":0,"byteLength":46752,"target":34962,"byteStride":12},{"buffer":0,"byteOffset":46752,"byteLength":46752,"target":34962,"byteStride":12},{"buffer":0,"byteOffset":93504,"byteLength":31168,"target":34962,"byteStride":8},{"buffer":0,"byteOffset":124672,"byteLength":24768,"target":34963},{"buffer":0,"byteOffset":149440,"byteLength":116160,"target":34962,"byteStride":12},{"buffer":0,"byteOffset":265600,"byteLength":116160,"target":34962,"byteStride":12},{"buffer":0,"byteOffset":381760,"byteLength":77440,"target":34962,"byteStride":8},{"buffer":0,"byteOffset":459200,"byteLength":29040,"target":34963}],"buffers":[{"byteLength":488240,"uri":"tree_LOD1.bin"}],"accessors":[{"bufferView":0,"componentType":5126,"count":3896,"max":[34.71045684814453,92.35478973388672,33.7809944152832],"min":[-24.393428802490234,0,-33.675025939941406],"type":"VEC3"},{"bufferView":1,"componentType":5126,"count":3896,"max":[1,0.9991815090179443,0.9987264275550842],"min":[-1,-0.9975780248641968,-0.9998446106910706],"type":"VEC3"},{"bufferView":2,"componentType":5126,"count":3896,"max":[2,1],"min":[0,0],"type":"VEC2"},{"bufferView":3,"componentType":5123,"count":12384,"max":[3895],"min":[0],"type":"SCALAR"},{"bufferView":4,"componentType":5126,"count":9680,"max":[42.40180587768555,101.00933074951172,41.26429748535156],"min":[-32.723445892333984,24.659421920776367,-41.32100296020508],"type":"VEC3"},{"bufferView":5,"componentType":5126,"count":9680,"max":[0.9998586177825928,0.9999207854270935,0.9995385408401489],"min":[-0.9992454051971436,-0.9984346032142639,-0.9999132752418518],"type":"VEC3"},{"bufferView":6,"componentType":5126,"count":9680,"max":[1,1],"min":[0,0],"type":"VEC2"},{"bufferView":7,"componentType":5123,"count":14520,"max":[9679],"min":[0],"type":"SCALAR"}],"materials":[{"pbrMetallicRoughness":{"baseColorFactor":[0.6172065624120635,0.6038273388475408,0.514917665367466,1],"metallicFactor":0,"roughnessFactor":1,"baseColorTexture":{"index":0,"texCoord":0,"extensions":{"KHR_texture_transform":{"scale":[1,0.2]}}}},"name":"branches"},{"pbrMetallicRoughness":{"metallicFactor":0,"roughnessFactor":1,"baseColorTexture":{"index":1,"texCoord":0}},"alphaMode":"MASK","alphaCutoff":0.5,"doubleSided":true,"name":"leaves"}],"textures":[{"sampler":1,"source":0},{"sampler":3,"source":1}],"samplers":[{"magFilter":9729,"minFilter":9987,"wrapS":10497,"wrapT":10497},{"magFilter":9729,"minFilter":9987,"wrapS":10497,"wrapT":10497},{"magFilter":9729,"minFilter":9987,"wrapS":10497,"wrapT":10497},{"magFilter":9729,"minFilter":9987,"wrapS":33071,"wrapT":33071}],"images":[{"name":"branches-color","uri":"textures/branches-color.webp","mimeType":"image/webp"},{"name":"leaves-color","uri":"textures/leaves-color.webp","mimeType":"image/webp"}],"meshes":[{"primitives":[{"mode":4,"attributes":{"POSITION":0,"NORMAL":1,"TEXCOORD_0":2},"indices":3,"material":0}]},{"primitives":[{"mode":4,"attributes":{"POSITION":4,"NORMAL":5,"TEXCOORD_0":6},"indices":7,"material":1}]}],"extensionsUsed":["KHR_texture_transform"]}