{"asset":{"version":"2.0","generator":"THREE.GLTFExporter r167; Ashenhold shared-texture conversion"},"scenes":[{"name":"AuxScene","nodes":[2]}],"scene":0,"nodes":[{"name":"Branches_LOD2","mesh":0},{"name":"Leaves_LOD2","mesh":1},{"name":"Tree_LOD2","children":[0,1]}],"bufferViews":[{"buffer":0,"byteOffset":0,"byteLength":29184,"target":34962,"byteStride":12},{"buffer":0,"byteOffset":29184,"byteLength":29184,"target":34962,"byteStride":12},{"buffer":0,"byteOffset":58368,"byteLength":19456,"target":34962,"byteStride":8},{"buffer":0,"byteOffset":77824,"byteLength":11556,"target":34963},{"buffer":0,"byteOffset":89380,"byteLength":58080,"target":34962,"byteStride":12},{"buffer":0,"byteOffset":147460,"byteLength":58080,"target":34962,"byteStride":12},{"buffer":0,"byteOffset":205540,"byteLength":38720,"target":34962,"byteStride":8},{"buffer":0,"byteOffset":244260,"byteLength":14520,"target":34963}],"buffers":[{"byteLength":258780,"uri":"tree_LOD2.bin"}],"accessors":[{"bufferView":0,"componentType":5126,"count":2432,"max":[34.71045684814453,92.35478973388672,33.7809944152832],"min":[-24.393428802490234,0,-33.675025939941406],"type":"VEC3"},{"bufferView":1,"componentType":5126,"count":2432,"max":[1,0.9991815090179443,0.9997231960296631],"min":[-0.999679684638977,-0.9975780248641968,-0.9988803267478943],"type":"VEC3"},{"bufferView":2,"componentType":5126,"count":2432,"max":[2,1],"min":[0,0],"type":"VEC2"},{"bufferView":3,"componentType":5123,"count":5778,"max":[2431],"min":[0],"type":"SCALAR"},{"bufferView":4,"componentType":5126,"count":4840,"max":[41.18947982788086,101.35551452636719,39.27581787109375],"min":[-32.74114990234375,24.977357864379883,-41.5404052734375],"type":"VEC3"},{"bufferView":5,"componentType":5126,"count":4840,"max":[0.9996347427368164,0.9999411106109619,0.9992818236351013],"min":[-0.9992237091064453,-0.9985825419425964,-0.9999919533729553],"type":"VEC3"},{"bufferView":6,"componentType":5126,"count":4840,"max":[1,1],"min":[0,0],"type":"VEC2"},{"bufferView":7,"componentType":5123,"count":7260,"max":[4839],"min":[0],"type":"SCALAR"}],"materials":[{"pbrMetallicRoughness":{"baseColorFactor":[0.6172065624120635,0.6038273388475408,0.514917665367466,1],"metallicFactor":0,"roughnessFactor":1,"baseColorTexture":{"index":0,"texCoord":0,"extensions":{"KHR_texture_transform":{"scale":[1,0.2]}}}},"name":"branches"},{"pbrMetallicRoughness":{"metallicFactor":0,"roughnessFactor":1,"baseColorTexture":{"index":1,"texCoord":0}},"alphaMode":"MASK","alphaCutoff":0.5,"doubleSided":true,"name":"leaves"}],"textures":[{"sampler":1,"source":0},{"sampler":3,"source":1}],"samplers":[{"magFilter":9729,"minFilter":9987,"wrapS":10497,"wrapT":10497},{"magFilter":9729,"minFilter":9987,"wrapS":10497,"wrapT":10497},{"magFilter":9729,"minFilter":9987,"wrapS":10497,"wrapT":10497},{"magFilter":9729,"minFilter":9987,"wrapS":33071,"wrapT":33071}],"images":[{"name":"branches-color","uri":"textures/branches-color.webp","mimeType":"image/webp"},{"name":"leaves-color","uri":"textures/leaves-color.webp","mimeType":"image/webp"}],"meshes":[{"primitives":[{"mode":4,"attributes":{"POSITION":0,"NORMAL":1,"TEXCOORD_0":2},"indices":3,"material":0}]},{"primitives":[{"mode":4,"attributes":{"POSITION":4,"NORMAL":5,"TEXCOORD_0":6},"indices":7,"material":1}]}],"extensionsUsed":["KHR_texture_transform"]}