{"asset":{"version":"2.0","generator":"THREE.GLTFExporter r167; Ashenhold shared-texture conversion"},"scenes":[{"name":"AuxScene","nodes":[2]}],"scene":0,"nodes":[{"name":"Branches_LOD0","mesh":0},{"name":"Leaves_LOD0","mesh":1},{"name":"Tree_LOD0","children":[0,1]}],"bufferViews":[{"buffer":0,"byteOffset":0,"byteLength":104856,"target":34962,"byteStride":12},{"buffer":0,"byteOffset":104856,"byteLength":104856,"target":34962,"byteStride":12},{"buffer":0,"byteOffset":209712,"byteLength":69904,"target":34962,"byteStride":8},{"buffer":0,"byteOffset":279616,"byteLength":70992,"target":34963},{"buffer":0,"byteOffset":350608,"byteLength":232320,"target":34962,"byteStride":12},{"buffer":0,"byteOffset":582928,"byteLength":232320,"target":34962,"byteStride":12},{"buffer":0,"byteOffset":815248,"byteLength":154880,"target":34962,"byteStride":8},{"buffer":0,"byteOffset":970128,"byteLength":58080,"target":34963}],"buffers":[{"byteLength":1028208,"uri":"tree_LOD0.bin"}],"accessors":[{"bufferView":0,"componentType":5126,"count":8738,"max":[34.71049880981445,92.35478973388672,33.7809944152832],"min":[-24.393428802490234,0,-33.675025939941406],"type":"VEC3"},{"bufferView":1,"componentType":5126,"count":8738,"max":[1,0.9991815090179443,1],"min":[-1,-0.9991036057472229,-1],"type":"VEC3"},{"bufferView":2,"componentType":5126,"count":8738,"max":[2,1],"min":[0,0],"type":"VEC2"},{"bufferView":3,"componentType":5123,"count":35496,"max":[8737],"min":[0],"type":"SCALAR"},{"bufferView":4,"componentType":5126,"count":19360,"max":[40.863380432128906,99.27842712402344,40.17605209350586],"min":[-31.11720848083496,23.64512062072754,-39.37687683105469],"type":"VEC3"},{"bufferView":5,"componentType":5126,"count":19360,"max":[0.9998624920845032,0.9998814463615417,0.9999876022338867],"min":[-0.9999498724937439,-0.9999066591262817,-0.9997912049293518],"type":"VEC3"},{"bufferView":6,"componentType":5126,"count":19360,"max":[1,1],"min":[0,0],"type":"VEC2"},{"bufferView":7,"componentType":5123,"count":29040,"max":[19359],"min":[0],"type":"SCALAR"}],"materials":[{"pbrMetallicRoughness":{"baseColorFactor":[0.6172065624120635,0.6038273388475408,0.514917665367466,1],"metallicFactor":0,"roughnessFactor":1,"baseColorTexture":{"index":0,"texCoord":0,"extensions":{"KHR_texture_transform":{"scale":[1,0.2]}}}},"name":"branches"},{"pbrMetallicRoughness":{"metallicFactor":0,"roughnessFactor":1,"baseColorTexture":{"index":1,"texCoord":0}},"alphaMode":"MASK","alphaCutoff":0.5,"doubleSided":true,"name":"leaves"}],"textures":[{"sampler":1,"source":0},{"sampler":3,"source":1}],"samplers":[{"magFilter":9729,"minFilter":9987,"wrapS":10497,"wrapT":10497},{"magFilter":9729,"minFilter":9987,"wrapS":10497,"wrapT":10497},{"magFilter":9729,"minFilter":9987,"wrapS":10497,"wrapT":10497},{"magFilter":9729,"minFilter":9987,"wrapS":33071,"wrapT":33071}],"images":[{"name":"branches-color","uri":"textures/branches-color.webp","mimeType":"image/webp"},{"name":"leaves-color","uri":"textures/leaves-color.webp","mimeType":"image/webp"}],"meshes":[{"primitives":[{"mode":4,"attributes":{"POSITION":0,"NORMAL":1,"TEXCOORD_0":2},"indices":3,"material":0}]},{"primitives":[{"mode":4,"attributes":{"POSITION":4,"NORMAL":5,"TEXCOORD_0":6},"indices":7,"material":1}]}],"extensionsUsed":["KHR_texture_transform"]}